<?xml version="1.0" standalone="no"?>
<!DOCTYPE svg PUBLIC "-//W3C//DTD SVG 20010904//EN"
 "http://www.w3.org/TR/2001/REC-SVG-20010904/DTD/svg10.dtd">
<svg version="1.0" xmlns="http://www.w3.org/2000/svg"
 width="512.000000pt" height="512.000000pt" viewBox="0 0 512.000000 512.000000"
 preserveAspectRatio="xMidYMid meet">
<metadata>
Created by potrace 1.14, written by Peter Selinger 2001-2017
</metadata>
<g transform="translate(0.000000,512.000000) scale(0.100000,-0.100000)"
fill="#000000" stroke="none">
<path d="M386 5104 c-176 -43 -329 -196 -371 -375 -13 -56 -15 -327 -15 -2169
0 -2316 -4 -2169 61 -2291 40 -74 134 -168 208 -208 122 -65 -25 -61 2291 -61
2316 0 2169 -4 2291 61 74 40 168 134 208 208 65 122 61 -25 61 2291 0 1842
-2 2113 -15 2169 -43 181 -195 333 -376 376 -94 22 -4251 21 -4343 -1z m970
-1079 c3 -13 -27 -316 -66 -675 -39 -358 -70 -653 -68 -655 2 -2 274 295 603
660 330 365 614 671 631 681 37 20 75 15 151 -20 59 -28 77 -53 64 -89 -5 -13
-220 -257 -478 -542 -257 -285 -484 -537 -505 -560 l-36 -41 435 -788 c323
-585 433 -794 431 -814 -7 -58 -197 -117 -244 -76 -12 11 -196 336 -409 724
-213 388 -395 717 -404 731 l-16 27 -75 -86 c-41 -48 -104 -119 -138 -159
l-64 -72 -59 -538 c-32 -296 -63 -554 -69 -574 -11 -39 -35 -55 -115 -79 -53
-15 -125 -10 -138 11 -8 12 34 411 146 1410 87 767 163 1416 170 1443 15 62
43 83 132 99 86 16 113 12 121 -18z m2064 -1 c6 -16 -37 -453 -136 -1360 -79
-735 -143 -1339 -140 -1341 2 -2 263 6 580 18 677 25 633 30 621 -74 -12 -112
-40 -149 -120 -161 -73 -10 -1192 -49 -1228 -42 -46 9 -123 90 -132 139 -8 40
279 2710 296 2765 14 44 43 61 131 75 89 16 117 11 128 -19z"/>
</g>
</svg>
